<svg width="30" height="30" viewBox="0 0 30 30" fill="none" xmlns="http://www.w3.org/2000/svg">
<g clip-path="url(#clip0_1_269)">
<path d="M15 0C6.72902 0 0 6.72902 0 15C0 23.271 6.72902 30 15 30C23.271 30 30 23.271 30 15C30 6.72902 23.271 0 15 0ZM15 27.6253C8.03824 27.6253 2.37469 21.9613 2.37469 15C2.37469 8.03865 8.03824 2.37469 15 2.37469C21.9613 2.37469 27.6253 8.03906 27.6253 15.0004C27.6253 21.9618 21.9613 27.6253 15 27.6253Z" fill="#7653FC"/>
<path d="M15 17.6616C10.7814 17.6616 6.83433 19.777 3.88654 23.6177L5.77044 25.0631C8.25868 21.8217 11.5365 20.0363 15 20.0363C18.4635 20.0363 21.7413 21.8217 24.2292 25.0631L26.1131 23.6177C23.1653 19.777 19.2186 17.6616 15 17.6616Z" fill="#7653FC"/>
<path d="M15.1741 6C11.7697 6 9 8.78748 9 12.2137C9 12.2137 11.7697 18.4274 15.1741 18.4274C18.5786 18.4274 21.3483 15.64 21.3483 12.2137C21.3483 8.78754 18.5786 6 15.1741 6ZM15.1741 16.0528C13.0793 16.0528 11.3747 14.3307 11.3747 12.2137C11.3747 10.0966 13.0793 8.37463 15.1741 8.37463C17.269 8.37463 18.9736 10.0971 18.9736 12.2137C18.9736 14.3303 17.269 16.0528 15.1741 16.0528Z" fill="#7653FC"/>
</g>
<defs>
<clipPath id="clip0_1_269">
<rect width="30" height="30" fill="white"/>
</clipPath>
</defs>
</svg>
